<?xml version="1.0" encoding="utf-8"?><svg xmlns="http://www.w3.org/2000/svg" xmlns:xlink="http://www.w3.org/1999/xlink"><symbol class="asvg-inline--fa afa-briefcase afa-w-16" viewBox="0 0 512 512" id="briefcase-solid" xmlns="http://www.w3.org/2000/svg"><path d="M320 336c0 8.84-7.16 16-16 16h-96c-8.84 0-16-7.16-16-16v-48H0v144c0 25.6 22.4 48 48 48h416c25.6 0 48-22.4 48-48V288H320v48zm144-208h-80V80c0-25.6-22.4-48-48-48H176c-25.6 0-48 22.4-48 48v48H48c-25.6 0-48 22.4-48 48v80h512v-80c0-25.6-22.4-48-48-48zm-144 0H192V96h128v32z"/></symbol><symbol class="bsvg-inline--fa bfa-chevron-left bfa-w-10" viewBox="0 0 320 512" id="chevron-left-solid" xmlns="http://www.w3.org/2000/svg"><path d="M34.52 239.03L228.87 44.69c9.37-9.37 24.57-9.37 33.94 0l22.67 22.67c9.36 9.36 9.37 24.52.04 33.9L131.49 256l154.02 154.75c9.34 9.38 9.32 24.54-.04 33.9l-22.67 22.67c-9.37 9.37-24.57 9.37-33.94 0L34.52 272.97c-9.37-9.37-9.37-24.57 0-33.94z"/></symbol><symbol class="csvg-inline--fa cfa-chevron-right cfa-w-10" viewBox="0 0 320 512" id="chevron-right-solid" xmlns="http://www.w3.org/2000/svg"><path d="M285.476 272.971L91.132 467.314c-9.373 9.373-24.569 9.373-33.941 0l-22.667-22.667c-9.357-9.357-9.375-24.522-.04-33.901L188.505 256 34.484 101.255c-9.335-9.379-9.317-24.544.04-33.901l22.667-22.667c9.373-9.373 24.569-9.373 33.941 0L285.475 239.03c9.373 9.372 9.373 24.568.001 33.941z"/></symbol><symbol class="dsvg-inline--fa dfa-clock dfa-w-16" viewBox="0 0 512 512" id="clock-regular" xmlns="http://www.w3.org/2000/svg"><path d="M256 8C119 8 8 119 8 256s111 248 248 248 248-111 248-248S393 8 256 8zm0 448c-110.5 0-200-89.5-200-200S145.5 56 256 56s200 89.5 200 200-89.5 200-200 200zm61.8-104.4l-84.9-61.7c-3.1-2.3-4.9-5.9-4.9-9.7V116c0-6.6 5.4-12 12-12h32c6.6 0 12 5.4 12 12v141.7l66.8 48.6c5.4 3.9 6.5 11.4 2.6 16.8L334.6 349c-3.9 5.3-11.4 6.5-16.8 2.6z"/></symbol><symbol class="esvg-inline--fa efa-envelope efa-w-16" viewBox="0 0 512 512" id="envelope-solid" xmlns="http://www.w3.org/2000/svg"><path d="M502.3 190.8c3.9-3.1 9.7-.2 9.7 4.7V400c0 26.5-21.5 48-48 48H48c-26.5 0-48-21.5-48-48V195.6c0-5 5.7-7.8 9.7-4.7 22.4 17.4 52.1 39.5 154.1 113.6 21.1 15.4 56.7 47.8 92.2 47.6 35.7.3 72-32.8 92.3-47.6 102-74.1 131.6-96.3 154-113.7zM256 320c23.2.4 56.6-29.2 73.4-41.4 132.7-96.3 142.8-104.7 173.4-128.7 5.8-4.5 9.2-11.5 9.2-18.9v-19c0-26.5-21.5-48-48-48H48C21.5 64 0 85.5 0 112v19c0 7.4 3.4 14.3 9.2 18.9 30.6 23.9 40.7 32.4 173.4 128.7 16.8 12.2 50.2 41.8 73.4 41.4z"/></symbol><symbol class="fsvg-inline--fa ffa-map-marker-alt ffa-w-12" viewBox="0 0 384 512" id="map-marker-alt-solid" xmlns="http://www.w3.org/2000/svg"><path d="M172.268 501.67C26.97 291.031 0 269.413 0 192 0 85.961 85.961 0 192 0s192 85.961 192 192c0 77.413-26.97 99.031-172.268 309.67-9.535 13.774-29.93 13.773-39.464 0zM192 272c44.183 0 80-35.817 80-80s-35.817-80-80-80-80 35.817-80 80 35.817 80 80 80z"/></symbol><symbol class="gsvg-inline--fa gfa-phone-alt gfa-w-16" viewBox="0 0 512 512" id="phone-alt-solid" xmlns="http://www.w3.org/2000/svg"><path d="M497.39 361.8l-112-48a24 24 0 00-28 6.9l-49.6 60.6A370.66 370.66 0 01130.6 204.11l60.6-49.6a23.94 23.94 0 006.9-28l-48-112A24.16 24.16 0 00122.6.61l-104 24A24 24 0 000 48c0 256.5 207.9 464 464 464a24 24 0 0023.4-18.6l24-104a24.29 24.29 0 00-14.01-27.6z"/></symbol><symbol viewBox="0 0 367.92 367.92" id="send" xmlns="http://www.w3.org/2000/svg"><path d="M367.851 6.944a7.49 7.49 0 00-.248-1.248 8.304 8.304 0 00-.528-1.296c-.112-.232-.152-.48-.288-.704-.088-.144-.232-.24-.336-.376-.264-.368-.576-.688-.904-1.016a7.817 7.817 0 00-1.032-.896c-.136-.096-.224-.232-.36-.312-.224-.136-.472-.168-.704-.28a8.32 8.32 0 00-1.336-.536 8.42 8.42 0 00-1.176-.208 8.207 8.207 0 00-1.4-.064c-.44.024-.864.112-1.296.216-.272.064-.552.04-.824.136l-352 120a7.973 7.973 0 00-5.416 7.408 7.997 7.997 0 005.136 7.624l164.456 63.192 71.064 164.512a8.01 8.01 0 007.344 4.824c.136 0 .264 0 .4-.008a8.004 8.004 0 007.224-5.56l112-352c.08-.248.056-.504.104-.76a7.56 7.56 0 00.184-1.336 7.968 7.968 0 00-.064-1.312zM31.475 128.368L330.011 26.592 173.619 182.984 31.475 128.368zm215.384 208.744l-61.76-142.976L342.403 36.824l-95.544 300.288z"/><path d="M125.659 242.264a7.991 7.991 0 00-11.312 0l-112 112a7.991 7.991 0 000 11.312c1.56 1.56 3.608 2.344 5.656 2.344s4.096-.784 5.656-2.344l112-112a7.991 7.991 0 000-11.312zm20.688 56l-56 56a7.991 7.991 0 000 11.312 7.978 7.978 0 005.656 2.344 7.978 7.978 0 005.656-2.344l56-56a7.991 7.991 0 000-11.312 7.991 7.991 0 00-11.312 0zM8.003 279.92a7.978 7.978 0 005.656-2.344l56-56a7.991 7.991 0 000-11.312 7.991 7.991 0 00-11.312 0l-56 56a7.991 7.991 0 000 11.312 7.978 7.978 0 005.656 2.344z"/></symbol><symbol class="isvg-inline--fa ifa-tasks ifa-w-16" viewBox="0 0 512 512" id="tasks-solid" xmlns="http://www.w3.org/2000/svg"><path d="M139.61 35.5a12 12 0 00-17 0L58.93 98.81l-22.7-22.12a12 12 0 00-17 0L3.53 92.41a12 12 0 000 17l47.59 47.4a12.78 12.78 0 0017.61 0l15.59-15.62L156.52 69a12.09 12.09 0 00.09-17zm0 159.19a12 12 0 00-17 0l-63.68 63.72-22.7-22.1a12 12 0 00-17 0L3.53 252a12 12 0 000 17L51 316.5a12.77 12.77 0 0017.6 0l15.7-15.69 72.2-72.22a12 12 0 00.09-16.9zM64 368c-26.49 0-48.59 21.5-48.59 48S37.53 464 64 464a48 48 0 000-96zm432 16H208a16 16 0 00-16 16v32a16 16 0 0016 16h288a16 16 0 0016-16v-32a16 16 0 00-16-16zm0-320H208a16 16 0 00-16 16v32a16 16 0 0016 16h288a16 16 0 0016-16V80a16 16 0 00-16-16zm0 160H208a16 16 0 00-16 16v32a16 16 0 0016 16h288a16 16 0 0016-16v-32a16 16 0 00-16-16z"/></symbol><symbol class="jsvg-inline--fa jfa-users jfa-w-20" viewBox="0 0 640 512" id="users-solid" xmlns="http://www.w3.org/2000/svg"><path d="M96 224c35.3 0 64-28.7 64-64s-28.7-64-64-64-64 28.7-64 64 28.7 64 64 64zm448 0c35.3 0 64-28.7 64-64s-28.7-64-64-64-64 28.7-64 64 28.7 64 64 64zm32 32h-64c-17.6 0-33.5 7.1-45.1 18.6 40.3 22.1 68.9 62 75.1 109.4h66c17.7 0 32-14.3 32-32v-32c0-35.3-28.7-64-64-64zm-256 0c61.9 0 112-50.1 112-112S381.9 32 320 32 208 82.1 208 144s50.1 112 112 112zm76.8 32h-8.3c-20.8 10-43.9 16-68.5 16s-47.6-6-68.5-16h-8.3C179.6 288 128 339.6 128 403.2V432c0 26.5 21.5 48 48 48h288c26.5 0 48-21.5 48-48v-28.8c0-63.6-51.6-115.2-115.2-115.2zm-223.7-13.4C161.5 263.1 145.6 256 128 256H64c-35.3 0-64 28.7-64 64v32c0 17.7 14.3 32 32 32h65.9c6.3-47.4 34.9-87.3 75.2-109.4z"/></symbol></svg>